<?xml version="1.0" encoding="UTF-8" standalone="no"?>
<!-- Created with Inkscape (http://www.inkscape.org/) -->

<svg
   width="1920"
   height="1080"
   viewBox="0 0 508 285.75"
   version="1.1"
   id="svg5"
   xml:space="preserve"
   inkscape:version="1.2.2 (732a01da63, 2022-12-09)"
   sodipodi:docname="wifi_power.svg"
   xmlns:inkscape="http://www.inkscape.org/namespaces/inkscape"
   xmlns:sodipodi="http://sodipodi.sourceforge.net/DTD/sodipodi-0.dtd"
   xmlns="http://www.w3.org/2000/svg"
   xmlns:svg="http://www.w3.org/2000/svg"><sodipodi:namedview
     id="namedview7"
     pagecolor="#505050"
     bordercolor="#eeeeee"
     borderopacity="1"
     inkscape:showpageshadow="0"
     inkscape:pageopacity="0"
     inkscape:pagecheckerboard="0"
     inkscape:deskcolor="#505050"
     inkscape:document-units="mm"
     showgrid="false"
     inkscape:zoom="0.89263468"
     inkscape:cx="990.32675"
     inkscape:cy="583.66543"
     inkscape:window-width="2560"
     inkscape:window-height="1417"
     inkscape:window-x="1272"
     inkscape:window-y="-8"
     inkscape:window-maximized="1"
     inkscape:current-layer="layer1" /><defs
     id="defs2" /><g
     inkscape:label="Layer 1"
     inkscape:groupmode="layer"
     id="layer1"><path
       d="m 389.31612,177.87503 q -3,0 -5.24996,-2.25004 -2.25005,-2.24996 -2.25005,-5.24996 v -65.00002 q 0,-3.00001 2.25005,-5.25006 2.24996,-2.24995 5.24996,-2.24995 h 85.00004 q 3,0 5.24996,2.24995 2.25005,2.25005 2.25005,5.25006 v 65.00002 q 0,3 -2.25005,5.24996 -2.24996,2.25004 -5.24996,2.25004 h -23.75007 v 6.24992 q 0,1.59382 -1.07811,2.67194 -1.0781,1.07811 -2.67184,1.07811 h -30 q -1.59374,0 -2.67184,-1.07811 -1.07821,-1.07812 -1.07821,-2.67194 v -6.24992 z m 0,-7.5 h 85.00004 v -65.00002 h -85.00004 z m 0,0 v -65.00002 z"
       id="path243"
       style="stroke-width:0.125;fill:#ffffff" /><path
       d="m 96.577183,148.25001 q -1.603125,0 -2.665625,-1.0781 -1.062501,-1.07811 -1.062501,-2.67194 v -43.24999 q 0,-1.593732 1.084374,-2.671847 1.084508,-1.0781 2.6875,-1.0781 1.603124,0 2.665627,1.0781 1.062502,1.078115 1.062502,2.671847 v 43.24999 q 0,1.59383 -1.084379,2.67194 -1.084497,1.0781 -2.687498,1.0781 z m 0.02174,39.99996 q -9.374996,0 -17.562501,-3.56248 Q 70.848926,181.125 64.786423,175.06255 58.723928,169 55.161421,160.8125 q -3.562498,-8.18749 -3.562498,-17.56252 0,-8.87498 3.500004,-16.93747 3.500003,-8.06249 9.75,-14.43752 1.124995,-1.12497 2.812497,-1.18753 1.687502,-0.0662 2.812498,1.06253 1.125004,1.12497 0.937511,2.68751 -0.187465,1.56247 -1.312498,2.68754 -5.249999,5.24995 -8.125001,11.93745 -2.874992,6.68749 -2.874992,14.18749 0,15.66964 10.915123,26.58491 10.915249,10.91508 26.584866,10.91508 15.669629,0 26.584879,-10.91508 10.91512,-10.91527 10.91512,-26.58491 0,-7.5 -2.83049,-14.22548 -2.8305,-6.72558 -8.04451,-12.02447 -1.12499,-1.12508 -1.25,-2.68753 -0.12504,-1.56246 0.99999,-2.56251 1.25001,-1.24999 2.93752,-1.06253 1.6875,0.1871 2.93749,1.43755 6.125,6.37501 9.4375,14.37108 3.3125,7.99616 3.3125,16.75389 0,9.37503 -3.56249,17.56252 -3.56251,8.1875 -9.62501,14.25005 -6.06249,6.06245 -14.25,9.62494 -8.18749,3.56248 -17.562507,3.56248 z"
       id="path310"
       style="stroke-width:0.125;fill:#ffffff" /><path
       d="m 216.6573,152.97162 q -1.73849,-1.7385 -1.80531,-4.2125 -0.0707,-2.47401 1.80531,-4.07876 8.42499,-7.35508 17.6523,-11.03273 9.22732,-3.67753 19.65828,-3.67753 10.43085,0 19.65826,3.67753 9.22732,3.67765 17.65221,11.03273 1.87222,1.60475 1.87222,4.01193 0,2.40709 -1.87222,4.27934 -1.7385,1.73848 -4.14557,1.73848 -2.40709,0 -4.27932,-1.60475 -7.22144,-6.01782 -14.37598,-8.55872 -7.15452,-2.54084 -14.5096,-2.54084 -7.35519,0 -14.50972,2.54084 -7.15452,2.5409 -14.37587,8.55872 -1.87223,1.60475 -4.27941,1.60475 -2.40708,0 -4.14558,-1.73849 z M 194.057,130.3713 q -1.7385,-1.73848 -1.80532,-4.27931 -0.0707,-2.54092 1.80532,-4.14568 12.16945,-10.9658 27.48149,-17.51856 15.31194,-6.55275 32.42939,-6.55275 17.11735,0 32.42938,6.55275 15.31203,6.55276 27.48139,17.51856 1.87223,1.60476 1.87223,4.07877 0,2.47399 -1.87223,4.34622 -1.73849,1.73849 -4.21249,1.73849 -2.47401,0 -4.34613,-1.60475 -11.09955,-9.49479 -23.93758,-15.04456 -12.83805,-5.54976 -27.41457,-5.54976 -14.57654,0 -27.41457,5.54976 -12.83805,5.54977 -23.93759,15.04456 -1.87223,1.60475 -4.34623,1.60475 -2.474,0 -4.21249,-1.73849 z m 59.91088,57.5037 q -4.81427,0 -8.42499,-3.61073 -3.61072,-3.61061 -3.61072,-8.42487 0,-4.81427 3.61072,-8.42499 3.61072,-3.61072 8.42499,-3.61072 4.81426,0 8.42498,3.61072 3.61063,3.61072 3.61063,8.42499 0,4.81426 -3.61063,8.42487 -3.61072,3.61073 -8.42498,3.61073 z"
       id="path327"
       style="stroke-width:0.13373;fill:#ffffff" /></g></svg>
